<svg width="171" height="40" viewBox="0 0 171 40" fill="none" xmlns="http://www.w3.org/2000/svg">
<g clip-path="url(#clip0)">
<path d="M15.8157 39.6085C18.6172 39.6085 21.4187 39.5821 24.2202 39.503L28.4247 39.3843C29.1119 39.3828 29.7986 39.3447 30.4815 39.2701C31.1435 39.1775 31.7905 39.0032 32.4067 38.7514C33.6225 38.2559 34.6926 37.4767 35.5215 36.4832C35.9291 35.9685 36.2863 35.4181 36.5885 34.8393L37.6238 33.081C38.9859 30.7206 40.4207 28.3777 41.8555 26.0481L42.9407 24.2898C43.1314 23.9953 43.2994 23.714 43.4538 23.4415L43.6672 23.0019L43.8533 22.5624C44.5434 20.7212 44.4734 18.6933 43.6581 16.9008C43.3902 16.3162 43.0224 15.7184 42.6955 15.1426L40.6432 11.5909C39.2583 9.23489 37.8599 6.87005 36.4251 4.55796C35.7027 3.44691 34.6961 2.53533 33.5028 1.91154C32.3096 1.28776 30.9702 0.972914 29.6143 0.997523C26.8128 1.05027 24.0068 1.12939 21.2053 1.15577L17.0008 1.2173H15.9519C15.6292 1.21004 15.3063 1.22031 14.9848 1.24807C13.0285 1.46991 11.2377 2.41868 9.99023 3.89423C9.5819 4.39846 9.22315 4.93854 8.91867 5.50741L7.87889 7.26566C6.51674 9.62609 5.09102 11.969 3.69254 14.3206L2.63007 16.0788L2.36672 16.5184L2.13969 16.9316L1.93537 17.3712L1.76737 17.8107C1.34674 18.9924 1.23902 20.2574 1.45408 21.4898C1.56191 22.1084 1.75113 22.7112 2.0171 23.2832C2.27137 23.8371 2.64369 24.4437 2.9706 25.0415L4.99567 28.6063L8.97769 35.7711C9.66867 36.933 10.663 37.8986 11.8609 38.5711C13.0652 39.2401 14.4273 39.5973 15.8157 39.6085ZM15.8157 39.7404C14.3876 39.74 12.9823 39.3945 11.7271 38.7351C10.472 38.0758 9.40674 37.1234 8.62808 35.9646L4.19654 29.0415L1.98531 25.5777C1.62207 24.9887 1.24521 24.4481 0.895593 23.7799C0.565428 23.1206 0.32285 22.4235 0.173652 21.7052C-0.126629 20.2572 -0.0295662 18.7583 0.455164 17.358L0.654946 16.8393L0.886512 16.3338L1.14986 15.8459L1.40867 15.4063L2.44845 13.6481C3.84692 11.2964 5.24086 8.94478 6.66658 6.61511L7.71997 4.83489C8.07821 4.21525 8.49144 3.62695 8.95499 3.07664C10.4327 1.36892 12.5375 0.283149 14.8259 0.0480729C15.197 0.0124205 15.5699 -0.00372043 15.9428 -0.000278701H16.9917L21.1962 0.0568642C23.9977 0.10082 26.7901 0.179941 29.6052 0.232688C31.0704 0.25977 32.504 0.650234 33.7689 1.36675C35.0226 2.07665 36.0718 3.08031 36.8201 4.28544C38.214 6.65027 39.6034 8.99752 41.0246 11.3404L43.1768 14.8569C43.54 15.4415 43.9214 15.9953 44.2574 16.6151C44.5805 17.2507 44.8214 17.9225 44.9748 18.6151C45.2769 20.0239 45.2018 21.484 44.7569 22.8569L44.5707 23.3624L44.3528 23.8591C44.1893 24.1887 44.0168 24.5052 43.8488 24.7909L42.8363 26.5755C41.4741 28.9448 40.0847 31.3052 38.659 33.6393L37.5965 35.3975C37.2372 36.0186 36.8209 36.6071 36.3524 37.1558C34.878 38.7957 32.8012 39.8143 30.5633 39.9953C30.2009 40.026 29.837 40.0348 29.4735 40.0217L28.4247 39.9909L24.2202 39.8722C21.4187 39.7668 18.6172 39.7492 15.8157 39.7404Z" fill="#AD4CED"/>
<path opacity="0.9" d="M24.4731 34.1846C31.0231 34.1846 36.3329 28.9872 36.3329 22.5758C36.3329 16.1645 31.0231 10.967 24.4731 10.967C17.9231 10.967 12.6133 16.1645 12.6133 22.5758C12.6133 28.9872 17.9231 34.1846 24.4731 34.1846Z" fill="#00E4AE"/>
<path opacity="0.9" d="M20.9409 29.3011C27.4908 29.3011 32.8007 24.1036 32.8007 17.6923C32.8007 11.2809 27.4908 6.0835 20.9409 6.0835C14.3909 6.0835 9.08105 11.2809 9.08105 17.6923C9.08105 24.1036 14.3909 29.3011 20.9409 29.3011Z" fill="#AD4CED"/>
<g opacity="0.9">
<path opacity="0.9" d="M66.9821 9.38463C68.7357 8.42311 70.7246 7.93718 72.7395 7.97803C75.0341 7.9042 77.283 8.61022 79.0962 9.97364C80.8304 11.3392 81.9779 13.2805 82.3154 15.4198H79.4594C79.1108 13.9753 78.2475 12.696 77.0212 11.8066C75.7296 10.9181 74.1734 10.4627 72.5896 10.5099C71.1232 10.4816 69.6798 10.8665 68.4351 11.6176C67.2275 12.3651 66.2676 13.4333 65.6699 14.6945C65.0059 16.122 64.6772 17.6743 64.7073 19.2396C64.68 20.7989 65.0087 22.3449 65.6699 23.767C66.2617 25.039 67.2223 26.1171 68.4351 26.8703C69.6798 27.6215 71.1232 28.0063 72.5896 27.978C74.1662 28.0343 75.7178 27.5846 77.003 26.6989C78.2247 25.8001 79.0916 24.5235 79.4594 23.0813H82.3018C81.9679 25.2125 80.8368 27.1507 79.1234 28.5275C77.4344 29.855 75.3155 30.5202 72.7667 30.5231C70.7512 30.5646 68.7617 30.077 67.0094 29.1121C65.3627 28.1825 64.0323 26.8075 63.1817 25.1561C62.2482 23.3199 61.7811 21.2945 61.8196 19.2484C61.7847 17.2082 62.2516 15.1893 63.1817 13.3583C64.0206 11.7029 65.3417 10.3215 66.9821 9.38463Z" fill="#AD4CED"/>
<path opacity="0.9" d="M101.1 30.3297H99.6243C98.5557 30.3297 97.799 30.1187 97.354 29.6967C97.111 29.4479 96.9222 29.1543 96.7989 28.8333C96.6757 28.5123 96.6205 28.1706 96.6366 27.8286C95.3471 29.6278 93.4825 30.526 91.0427 30.5231C89.1902 30.5231 87.7024 30.1011 86.5794 29.2571C86.0324 28.8548 85.5936 28.3307 85.3004 27.7292C85.0071 27.1278 84.868 26.4668 84.8949 25.8022C84.8949 24.1788 85.467 22.9333 86.6112 22.0659C87.7554 21.1985 89.4202 20.759 91.6057 20.7472H96.4868V19.6615C96.5124 19.1961 96.427 18.7312 96.2373 18.3028C96.0475 17.8744 95.7585 17.4941 95.3925 17.1912C94.5124 16.556 93.4277 16.2444 92.3322 16.3121C91.3224 16.2734 90.3244 16.5341 89.4717 17.0593C89.114 17.281 88.8065 17.5706 88.5677 17.9106C88.3289 18.2506 88.1638 18.6339 88.0823 19.0374H85.3989C85.4664 18.305 85.6956 17.5953 86.0708 16.956C86.446 16.3168 86.9585 15.7629 87.5738 15.3319C88.8269 14.4527 90.457 14.0132 92.4639 14.0132C94.601 14.0132 96.2522 14.5157 97.4176 15.5209C98.583 16.526 99.1672 17.9663 99.1702 19.8418V26.7868C99.1702 27.5648 99.538 27.956 100.283 27.956H101.1V30.3297ZM91.3197 22.9538C88.8315 22.9538 87.5889 23.8505 87.5919 25.644C87.5817 26.0191 87.6656 26.391 87.8364 26.7278C88.0072 27.0647 88.2599 27.3564 88.5727 27.578C89.3477 28.0969 90.2788 28.352 91.2198 28.3033C92.8544 28.3033 94.1439 27.8901 95.0792 27.0549C95.5481 26.6334 95.9168 26.1184 96.1598 25.5454C96.4028 24.9724 96.5144 24.3551 96.4868 23.7363V22.9451L91.3197 22.9538Z" fill="#AD4CED"/>
<path opacity="0.9" d="M105.84 8.16699V30.3296H103.161V8.16699H105.84Z" fill="#AD4CED"/>
<path opacity="0.9" d="M125.106 30.3297H123.634C122.566 30.3297 121.809 30.1187 121.364 29.6967C121.12 29.4485 120.931 29.155 120.808 28.8338C120.684 28.5127 120.63 28.1707 120.647 27.8286C119.357 29.6278 117.493 30.526 115.053 30.5231C113.2 30.5231 111.711 30.1011 110.585 29.2571C110.039 28.854 109.601 28.3298 109.308 27.7285C109.014 27.1273 108.875 26.4666 108.9 25.8022C108.9 24.1788 109.474 22.9333 110.621 22.0659C111.769 21.1985 113.433 20.759 115.616 20.7472H120.524V19.6615C120.548 19.1951 120.46 18.7296 120.268 18.3012C120.076 17.8728 119.784 17.493 119.416 17.1912C118.538 16.5556 117.455 16.2439 116.36 16.3121C115.351 16.2728 114.352 16.5336 113.5 17.0593C113.143 17.2821 112.836 17.5719 112.596 17.9117C112.357 18.2514 112.19 18.6342 112.106 19.0374H109.427C109.495 18.305 109.724 17.5953 110.099 16.956C110.474 16.3168 110.987 15.7629 111.602 15.3319C112.855 14.4527 114.485 14.0132 116.492 14.0132C118.626 14.0132 120.277 14.5157 121.446 15.5209C122.614 16.526 123.197 17.9663 123.194 19.8418V26.7868C123.194 27.5648 123.566 27.956 124.306 27.956H125.124L125.106 30.3297ZM115.33 22.9538C112.842 22.9538 111.598 23.8505 111.598 25.644C111.587 26.0191 111.671 26.391 111.842 26.7278C112.013 27.0647 112.265 27.3564 112.578 27.578C113.355 28.0963 114.288 28.3513 115.23 28.3033C116.864 28.3033 118.149 27.8901 119.089 27.0549C119.557 26.6344 119.925 26.1208 120.168 25.5494C120.411 24.978 120.523 24.3624 120.497 23.7451V22.9538H115.33Z" fill="#AD4CED"/>
<path opacity="0.9" d="M141.529 30.3297H139.204L138.845 28.1803C137.583 29.7422 135.806 30.5232 133.515 30.5232C132.636 30.5638 131.759 30.4287 130.937 30.1262C130.115 29.8236 129.367 29.3602 128.738 28.7649C127.527 27.5928 126.922 25.7349 126.922 23.1913V14.1847H129.605V23.0155C129.605 24.6858 129.981 25.9576 130.731 26.8308C131.128 27.2756 131.625 27.626 132.184 27.8547C132.743 28.0834 133.349 28.1843 133.955 28.1495C134.639 28.18 135.321 28.0523 135.944 27.7772C136.567 27.502 137.113 27.0872 137.538 26.5671C138.394 25.5122 138.824 24.0777 138.827 22.2638V14.1847H141.511L141.529 30.3297Z" fill="#AD4CED"/>
<path opacity="0.9" d="M153.665 16.7034H152.302C150.713 16.7034 149.575 17.2206 148.888 18.255C148.166 19.4081 147.808 20.7404 147.857 22.088V30.3298H145.174V14.1847H147.494L147.857 16.6199C148.324 15.8985 148.962 15.2957 149.719 14.8616C150.698 14.3693 151.796 14.1401 152.897 14.1979H153.651L153.665 16.7034Z" fill="#AD4CED"/>
<path opacity="0.9" d="M171.001 30.3296H168.681L168.317 27.7362C167.68 28.6264 166.823 29.3478 165.823 29.8346C164.824 30.3214 163.714 30.5581 162.596 30.523C161.154 30.5456 159.731 30.2064 158.464 29.5384C157.25 28.8778 156.262 27.8877 155.622 26.6901C154.903 25.3193 154.548 23.7963 154.591 22.2593C154.558 20.7626 154.912 19.2817 155.622 17.9516C156.274 16.7396 157.266 15.7297 158.483 15.0373C159.734 14.3333 161.159 13.9717 162.605 13.9912C163.802 13.9588 164.99 14.2029 166.07 14.7033C166.994 15.1426 167.778 15.8154 168.34 16.6505V8.16699H171.023L171.001 30.3296ZM167.664 25.3758C168.134 24.4228 168.369 23.3769 168.349 22.3208C168.369 21.2436 168.134 20.1763 167.664 19.2C167.244 18.3231 166.572 17.5816 165.729 17.0637C164.868 16.5516 163.874 16.2878 162.864 16.3033C162.111 16.276 161.361 16.4109 160.669 16.6982C159.976 16.9856 159.358 17.4182 158.859 17.9648C157.814 19.1611 157.272 20.6938 157.338 22.2593C157.272 23.8233 157.815 25.3544 158.859 26.5494C159.358 27.0961 159.976 27.5287 160.669 27.816C161.361 28.1033 162.111 28.2382 162.864 28.2109C163.872 28.226 164.864 27.9687 165.729 27.4681C166.567 26.9639 167.239 26.2378 167.664 25.3758Z" fill="#AD4CED"/>
</g>
</g>
<defs>
<clipPath id="clip0">
<rect width="171" height="40" fill="white"/>
</clipPath>
</defs>
</svg>
