<svg width="62" height="62" viewBox="0 0 62 62" fill="none" xmlns="http://www.w3.org/2000/svg">
<path d="M31.5906 48.5196C31.7708 48.5796 31.891 48.6998 31.9511 48.8801C32.0112 49.0603 31.9811 49.2405 31.861 49.4208L24.3807 56.901C23.1791 58.1027 21.7972 59.064 20.235 59.785C18.6729 60.506 17.0807 60.9266 15.4585 61.0467C13.8363 61.1669 12.2141 61.0467 10.5918 60.6862C8.96961 60.3257 7.49759 59.5747 6.17578 58.4331C4.55356 57.1714 3.29183 55.6393 2.3906 53.8368C1.48936 52.0344 1.00871 50.2319 0.948623 48.4294C0.88854 46.627 1.15891 44.7945 1.75973 42.9319C2.36056 41.0694 3.38196 39.4471 4.82393 38.0652L16.4499 26.4393C18.3124 24.5768 20.4754 23.1949 22.9387 22.2936C25.4021 21.3924 27.9256 21.1521 30.5091 21.5726C32.7922 21.9331 34.5947 22.594 35.9165 23.5554C37.2383 24.5167 38.2898 25.6282 39.0708 26.8899C39.191 27.1903 39.176 27.4156 39.0258 27.5659C38.8756 27.7161 38.7104 27.8512 38.5301 27.9714C38.3499 28.0916 38.1396 28.2718 37.8992 28.5122L37.2684 29.143C36.6676 29.8039 35.9466 30.1344 35.1054 30.1344C34.2643 30.1344 33.4982 29.7889 32.8073 29.098C32.1163 28.407 31.3503 27.8813 30.5091 27.5208C29.668 27.1603 28.7367 27.0101 27.7153 27.0702C26.6939 27.1303 25.7927 27.2805 25.0116 27.5208C24.2305 27.7611 23.4194 28.3019 22.5783 29.143L9.23998 42.4813C8.45891 43.2624 7.88813 44.1636 7.52764 45.185C7.16714 46.2064 7.04698 47.2278 7.16714 48.2492C7.28731 49.2706 7.58772 50.292 8.06838 51.3134C8.54903 52.3348 9.3301 53.1459 10.4116 53.7467C11.9136 54.7681 13.5359 55.1286 15.2783 54.8282C17.0206 54.5278 18.4927 53.8068 19.6943 52.6652L25.4622 46.9875C25.5824 46.8072 25.7626 46.7772 26.0029 46.8973C27.8054 47.6784 29.668 48.2191 31.5906 48.5196ZM56.6449 2.91709C58.2671 4.17882 59.5289 5.68088 60.4301 7.42326C61.3313 9.16565 61.842 10.9681 61.9622 12.8307C62.0824 14.6932 61.812 16.5558 61.1511 18.4183C60.4902 20.2809 59.4387 21.9031 57.9968 23.285L46.3708 34.9109C44.5083 36.7735 42.3453 38.1253 39.882 38.9665C37.4186 39.8076 34.8651 40.048 32.2215 39.6875C29.9383 39.3871 28.1659 38.7261 26.9042 37.7047C25.6424 36.6833 24.591 35.5718 23.7499 34.3702C23.6297 34.1298 23.6597 33.9196 23.84 33.7393L25.4622 32.1171C26.1231 31.5163 26.8741 31.2159 27.7153 31.2159C28.5564 31.2159 29.2774 31.5163 29.8783 32.1171C30.5992 32.8381 31.4103 33.3788 32.3116 33.7393C33.2128 34.0998 34.1441 34.2801 35.1054 34.2801C36.0667 34.2801 36.998 34.0998 37.8992 33.7393C38.8005 33.3788 39.5815 32.8381 40.2424 32.1171L53.5807 18.8689C54.3618 18.0879 54.9326 17.1566 55.2931 16.0751C55.6536 14.9936 55.7737 13.9422 55.6536 12.9208C55.5334 11.8994 55.2029 10.908 54.6622 9.94672C54.1215 8.9854 53.3404 8.17429 52.319 7.51339C50.877 6.55207 49.2848 6.19158 47.5424 6.4319C45.8001 6.67223 44.298 7.42326 43.0363 8.68499L37.3585 14.3628C37.1782 14.543 36.998 14.5731 36.8178 14.4529C35.1355 13.7319 33.2729 13.1611 31.2301 12.7405C30.9898 12.7405 30.8696 12.6204 30.8696 12.3801C30.8696 12.1397 30.8997 11.9895 30.9597 11.9294L38.44 4.44919C39.6416 3.24754 41.0235 2.28623 42.5857 1.56524C44.1478 0.84425 45.7099 0.393633 47.2721 0.213386C48.8342 0.0331389 50.4564 0.183345 52.1387 0.664003C53.821 1.14466 55.3231 1.89569 56.6449 2.91709Z" fill="white"/>
</svg>
