<svg width="75" height="75" viewBox="0 0 75 75" fill="none" xmlns="http://www.w3.org/2000/svg">
<path d="M59.4906 54.382L54.5831 49.6651C53.4178 48.3979 51.9712 47.4221 50.3598 46.8162C48.7484 46.2103 47.0173 45.9913 45.3058 46.1767C43.5943 46.3621 41.9502 46.9468 40.506 47.8837C39.0618 48.8206 37.8577 50.0836 36.9908 51.5709L22.6201 74.1513H8.17973C6.23566 74.1513 4.37122 73.3791 2.99655 72.0044C1.62189 70.6297 0.849609 68.7653 0.849609 66.8212V30.1706C0.849609 28.2265 1.62189 26.3621 2.99655 24.9874C4.37122 23.6127 6.23566 22.8405 8.17973 22.8405H52.1605C54.1045 22.8405 55.969 23.6127 57.3437 24.9874C58.7183 26.3621 59.4906 28.2265 59.4906 30.1706V54.382ZM59.4906 64.4682V66.8212C59.4906 68.7653 58.7183 70.6297 57.3437 72.0044C55.969 73.3791 54.1045 74.1513 52.1605 74.1513H32.0466L43.324 55.2616C43.6128 54.7657 44.014 54.3445 44.4953 54.0319C44.9766 53.7194 45.5245 53.5243 46.0951 53.4622C46.6656 53.4002 47.2427 53.473 47.7799 53.6747C48.3171 53.8765 48.7995 54.2016 49.1881 54.6239L59.4906 64.4682ZM22.84 55.826C24.2839 55.826 25.7137 55.5416 27.0477 54.9891C28.3817 54.4365 29.5938 53.6266 30.6148 52.6056C31.6357 51.5846 32.4457 50.3725 32.9982 49.0385C33.5508 47.7045 33.8352 46.2747 33.8352 44.8308C33.8352 43.3869 33.5508 41.9572 32.9982 40.6232C32.4457 39.2892 31.6357 38.0771 30.6148 37.0561C29.5938 36.0351 28.3817 35.2252 27.0477 34.6726C25.7137 34.1201 24.2839 33.8357 22.84 33.8357C19.9239 33.8357 17.1272 34.9941 15.0652 37.0561C13.0032 39.1181 11.8448 41.9147 11.8448 44.8308C11.8448 47.7469 13.0032 50.5436 15.0652 52.6056C17.1272 54.6676 19.9239 55.826 22.84 55.826ZM15.5099 19.1754V8.18022C15.5099 6.23615 16.2821 4.37171 17.6568 2.99704C19.0315 1.62238 20.8959 0.850098 22.84 0.850098H66.8207C68.7648 0.850098 70.6292 1.62238 72.0039 2.99704C73.3786 4.37171 74.1508 6.23615 74.1508 8.18022V32.956L69.2433 27.6747C67.4382 25.7098 64.9801 24.4684 62.3274 24.1819C60.9859 21.2168 58.1712 19.1754 54.9093 19.1754H47.8724C47.1151 17.0294 45.7109 15.1711 43.8532 13.8566C41.9956 12.5422 39.7759 11.8363 37.5002 11.8363C35.2245 11.8363 33.0049 12.5422 31.1472 13.8566C29.2895 15.1711 27.8853 17.0294 27.1281 19.1754H15.5099ZM63.1557 52.161V32.0471C63.41 32.2131 63.6426 32.4101 63.8484 32.6335L74.1508 43.5884V44.8308C74.1508 46.7749 73.3786 48.6394 72.0039 50.014C70.6292 51.3887 68.7648 52.161 66.8207 52.161H63.1557Z" fill="white"/>
</svg>
