<svg id="Capa_1" enable-background="new 0 0 512 512" height="512" viewBox="0 0 512 512" width="512" xmlns="http://www.w3.org/2000/svg"><g><path d="m62 422.97c-38.639-44.827-62-103.191-62-167.012 0-141.362 114.615-255.958 256-255.958s256 114.596 256 255.958c0 63.82-23.361 122.185-62 167.012-2.56 2.97-120.675-71.486-194-71.486s-191.44 74.457-194 71.486z" fill="#5e8745"/><path d="m74.702 417.492c-7.627 3.928-12.219 6.122-12.702 5.562-10.145-11.769-19.236-24.472-27.128-37.961v-239.098c0-2.761 2.239-4.999 5-4.999h29.83c2.761 0 5 2.238 5 4.999z" fill="#4f7139"/><path d="m450 34.994v387.976c-46.946 54.465-116.446 88.946-194 88.946s-147.054-34.481-194-88.946v-387.976c0-2.761 2.239-4.999 5-4.999h378c2.761 0 5 2.238 5 4.999z" fill="#e9f3fe"/><path d="m270.043 511.538c-4.649.251-9.331.462-14.043.462-77.554 0-147.054-34.481-194-88.946v-387.976c0-2.761 2.239-4.999 5-4.999h28.085c-2.761 0-5 2.238-5 4.999v387.976c44.094 51.156 108.084 84.599 179.958 88.484z" fill="#c8e2fd"/><path d="m306 444.928c0 27.61-22.386 49.992-50 49.992s-50-22.382-50-49.992 22.386-49.992 50-49.992 50 22.382 50 49.992z" fill="#88b56c"/><path d="m292 444.928c0 19.879-16.118 35.994-36 35.994s-36-16.115-36-35.994 16.118-35.994 36-35.994 36 16.115 36 35.994z" fill="#6e9e50"/><path d="m161 237.461c0-4.141 3.358-7.499 7.5-7.499h175c4.142 0 7.5 3.357 7.5 7.499 0 4.141-3.358 7.499-7.5 7.499h-175c-4.142 0-7.5-3.357-7.5-7.499zm182.5 21.497h-175c-4.142 0-7.5 3.357-7.5 7.499s3.358 7.499 7.5 7.499h175c4.142 0 7.5-3.357 7.5-7.499s-3.358-7.499-7.5-7.499zm0 29.995h-175c-4.142 0-7.5 3.357-7.5 7.499 0 4.141 3.358 7.499 7.5 7.499h175c4.142 0 7.5-3.357 7.5-7.499s-3.358-7.499-7.5-7.499zm-49 26.996h-77c-4.142 0-7.5 3.357-7.5 7.499s3.358 7.499 7.5 7.499h77c4.142 0 7.5-3.357 7.5-7.499s-3.358-7.499-7.5-7.499zm-77-204.967h77c4.142 0 7.5-3.357 7.5-7.499 0-4.141-3.358-7.499-7.5-7.499h-77c-4.142 0-7.5 3.357-7.5 7.499s3.358 7.499 7.5 7.499z" fill="#a7d0fc"/><path d="m351 158.974c0 4.141-3.358 7.499-7.5 7.499h-175c-4.142 0-7.5-3.357-7.5-7.499s3.358-7.499 7.5-7.499h175c4.142 0 7.5 3.358 7.5 7.499zm-66.5 20.997h-57c-4.142 0-7.5 3.357-7.5 7.499s3.358 7.499 7.5 7.499h57c4.142 0 7.5-3.357 7.5-7.499s-3.358-7.499-7.5-7.499z" fill="#85a6d3"/><path d="m286.338 435.858-25.035 25.03c-1.406 1.406-3.314 2.196-5.303 2.196s-3.897-.79-5.303-2.196l-16.017-16.016c-2.929-2.928-2.929-7.676 0-10.605 2.929-2.927 7.678-2.928 10.606.001l10.714 10.713 19.731-19.728c2.929-2.928 7.678-2.926 10.606 0 2.93 2.929 2.93 7.676.001 10.605z" fill="#e9f3fe"/><path d="m381.241 484.018-14.142 14.14c-3.905 3.905-10.237 3.905-14.142 0l-79.196-79.183c-3.905-3.905-3.905-10.235 0-14.14l14.142-14.14c3.905-3.905 10.237-3.905 14.142 0l79.196 79.183c3.906 3.905 3.906 10.235 0 14.14z" fill="#476633"/><path d="m446.67 347.9-86.642 86.628c-3.905 3.904-10.237 3.904-14.142 0l-8.485-8.484c-3.905-3.905-3.905-10.235 0-14.14l86.642-86.628c3.905-3.904 10.237-3.904 14.142 0l8.485 8.484c3.906 3.905 3.906 10.236 0 14.14z" fill="#d86b3e"/><path d="m447.439 347.132-55.758 55.749c-3.481 3.48-9.125 3.48-12.605 0-3.481-3.48-3.481-9.123 0-12.603l55.758-55.749c3.481-3.48 9.125-3.48 12.605 0 3.481 3.48 3.481 9.123 0 12.603z" fill="#de815a"/><path d="m345.887 448.669-22.626-22.623c-3.906-3.905-3.906-10.238 0-14.143l14.141-14.139c3.905-3.904 10.236-3.904 14.141 0l22.626 22.623c3.906 3.905 3.906 10.238 0 14.143l-14.141 14.139c-3.906 3.904-10.236 3.904-14.141 0zm96.178-102.367 7.07-7.069c3.906-3.905 3.906-10.238 0-14.143l-12.453-12.451c-3.905-3.904-10.236-3.904-14.141 0l-7.07 7.069c-3.906 3.905-3.906 10.238 0 14.143l12.453 12.451c3.905 3.905 10.236 3.905 14.141 0z" fill="#cb5929"/><path d="m318.281 406.928-14.142 14.14c-3.905 3.905-10.237 3.905-14.142 0l-23.306-23.303c-3.905-3.904-3.905-10.235 0-14.14l14.142-14.14c3.905-3.905 10.237-3.905 14.142 0l23.306 23.303c3.905 3.905 3.905 10.235 0 14.14zm133.957-50.455 7.07-7.069c3.906-3.905 3.906-10.238 0-14.143l-10.498-10.496c-3.905-3.904-10.236-3.904-14.141 0l-7.07 7.069c-3.906 3.905-3.906 10.238 0 14.143l10.498 10.496c3.905 3.905 10.236 3.905 14.141 0z" fill="#d86b3e"/><path d="m402.455 491.088-14.142 14.14c-3.905 3.905-10.237 3.905-14.142 0l-87.138-87.124c-3.905-3.905-3.905-10.235 0-14.14l14.142-14.14c3.905-3.904 10.237-3.904 14.142 0l87.138 87.124c3.905 3.905 3.905 10.235 0 14.14z" fill="#de815a"/></g></svg>