<?xml version="1.0" encoding="iso-8859-1"?>
<!-- Generator: Adobe Illustrator 19.0.0, SVG Export Plug-In . SVG Version: 6.00 Build 0)  -->
<svg version="1.1" id="Capa_1" xmlns="http://www.w3.org/2000/svg" xmlns:xlink="http://www.w3.org/1999/xlink" x="0px" y="0px"
	 viewBox="0 0 512 512" style="enable-background:new 0 0 512 512;" xml:space="preserve">
<path style="fill:#707789;" d="M479.299,382.299c-2.999-3.9-7.5-6.299-12.299-6.299H45c-4.799,0-9.3,2.399-12.299,6.299
	c-2.701,3.9-3.602,9.001-1.8,13.5C50.7,455.799,106.8,496,169.799,496h172.402c62.999,0,119.099-40.201,138.898-100.201
	C482.901,391.3,482,386.199,479.299,382.299z M342.201,466H169.799c-42.9,0-81.599-23.401-101.999-60h376.4
	C423.8,442.599,385.101,466,342.201,466z"/>
<path style="fill:#FEDB41;" d="M482,271v90c0,8.399-6.599,15-15,15H45c-8.401,0-15-6.601-15-15v-90
	c0-68.101,32.199-131.1,82.301-173.401l142.5,78.3L256,175.3l143.699-77.701C449.801,139.9,482,202.899,482,271z"/>
<path style="fill:#555A66;" d="M481.099,395.799C461.3,455.799,405.2,496,342.201,496H256v-30h86.201
	c42.9,0,81.599-23.401,101.999-60H256v-30h211c4.799,0,9.3,2.399,12.299,6.299C482,386.199,482.901,391.3,481.099,395.799z"/>
<path style="fill:#FCBF29;" d="M482,271v90c0,8.399-6.599,15-15,15H256V175.3l143.699-77.701C449.801,139.9,482,202.899,482,271z"/>
<path style="fill:#FEA832;" d="M482,346H30c-16.5,0-30,13.5-30,30s13.5,30,30,30h452c16.5,0,30-13.5,30-30S498.5,346,482,346z"/>
<path style="fill:#FF873C;" d="M512,376c0,16.5-13.5,30-30,30H256v-60h226C498.5,346,512,359.5,512,376z"/>
<path style="fill:#FEA832;" d="M317.5,54.401c-1.199-0.3-31.199-0.3-61.5-0.3s-60.601,0-61.5,0.3
	C164.2,63.1,136,78.1,112.301,97.599l32.699,97.5c6,18.6,23.1,30.901,42.599,30.901h136.802C343.9,226,361,213.699,367,195.099
	l32.699-97.5C376.3,78.701,347.5,62.8,317.5,54.401z"/>
<path style="fill:#FF873C;" d="M324.401,226H256V54.101c30.3,0,60.3,0,61.5,0.3c30,8.399,58.801,24.3,82.2,43.198l-32.7,97.5
	C361,213.699,343.9,226,324.401,226z"/>
<path style="fill:#FEDB41;" d="M306.099,29.5C290.799,20.5,273.4,16,256,16s-34.799,4.501-50.099,13.5
	C189.7,39.1,181,58,184.901,76.901L213.701,226h84.598L327.1,76.901C331,58.001,322.301,39.101,306.099,29.5z"/>
<path style="fill:#FCBF29;" d="M298.299,226H256V16c17.401,0,34.799,4.501,50.099,13.5c16.201,9.6,24.901,28.5,21,47.401
	L298.299,226z"/>
<g>
</g>
<g>
</g>
<g>
</g>
<g>
</g>
<g>
</g>
<g>
</g>
<g>
</g>
<g>
</g>
<g>
</g>
<g>
</g>
<g>
</g>
<g>
</g>
<g>
</g>
<g>
</g>
<g>
</g>
</svg>
