<svg id="Layer_1" enable-background="new 0 0 511 511" height="512" viewBox="0 0 511 511" width="512" xmlns="http://www.w3.org/2000/svg"><g><path d="m431.5 231.5v224h-352v-224l176-144z" fill="#fee95d"/><path d="m431.5 255.86v-24.36l-176-144-14.89 12.18z" fill="#ffc277"/><path d="m79.5 231.5h352v224h-352z" fill="#fee95d"/><path d="m407.5 231.5h24v224h-24z" fill="#ffc277"/><path d="m79.5 231.5 176 144 176-144z" fill="#c6fff6"/><path d="m255.5 293.5-50.111 41 11 9 39.111-32 39.111 32 11-9z" fill="#8ad8f6"/><g fill="#8ad8f6"><path d="m227.389 334.5-125.889-103h-22l136.889 112z"/><path d="m294.611 343.5 136.889-112h-22l-125.889 103z"/></g><g><g fill="#fff"><circle cx="84.755" cy="87.5" r="16"/><path d="m73.441 76.186c1.798-1.797 3.921-3.06 6.176-3.824-1.89 5.584-.627 12 3.824 16.451s10.867 5.714 16.451 3.824c-.763 2.255-2.026 4.379-3.824 6.176-6.248 6.248-16.379 6.248-22.627 0s-6.248-16.378 0-22.627z"/><circle cx="39.5" cy="132.755" r="16"/><path d="m28.186 121.441c1.798-1.797 3.921-3.06 6.176-3.824-1.89 5.584-.627 12 3.824 16.451s10.867 5.714 16.451 3.824c-.763 2.255-2.026 4.379-3.824 6.176-6.248 6.248-16.379 6.248-22.627 0s-6.248-16.378 0-22.627z"/></g><path d="m84.755 132.755c6.248-6.248 6.248-16.379 0-22.627l-22.628-22.628c-6.248-6.248-16.379-6.248-22.627 0-6.248 6.248-6.248 16.379 0 22.627l22.627 22.627c6.249 6.249 16.379 6.249 22.628.001z" fill="#00adeb"/><path d="m34.815 98.82c0 4.09 1.56 8.18 4.69 11.31l22.62 22.62c6.25 6.25 16.37 6.25 22.62 0l-45.24-45.24c-3.13 3.12-4.69 7.21-4.69 11.31z" fill="#006dee"/></g><g><g fill="#fff"><circle cx="442.245" cy="103.5" r="16"/><path d="m453.559 92.186c-1.798-1.797-3.921-3.06-6.176-3.824 1.89 5.584.627 12-3.824 16.451s-10.867 5.714-16.451 3.824c.763 2.255 2.026 4.379 3.824 6.176 6.248 6.248 16.379 6.248 22.627 0s6.248-16.378 0-22.627z"/><circle cx="487.5" cy="148.755" r="16"/><path d="m498.814 137.441c-1.798-1.797-3.921-3.06-6.176-3.824 1.89 5.584.627 12-3.824 16.451s-10.867 5.714-16.451 3.824c.763 2.255 2.026 4.379 3.824 6.176 6.248 6.248 16.379 6.248 22.627 0s6.248-16.378 0-22.627z"/></g><path d="m442.245 148.755c-6.248-6.248-6.248-16.379 0-22.627l22.627-22.627c6.248-6.248 16.379-6.248 22.627 0 6.248 6.248 6.248 16.379 0 22.627l-22.627 22.627c-6.248 6.248-16.378 6.248-22.627 0z" fill="#00adeb"/><path d="m492.185 114.82c0 4.09-1.56 8.18-4.69 11.31l-22.62 22.62c-6.25 6.25-16.37 6.25-22.62 0l45.24-45.24c3.13 3.12 4.69 7.21 4.69 11.31z" fill="#006dee"/></g><path d="m255.5 311.5-176 144h352z" fill="#fee95d"/><path d="m79.5 439.5h352v16h-352z" fill="#ffc277"/><circle cx="351.5" cy="71.5" fill="#fee95d" r="16"/><circle cx="31.5" cy="327.5" fill="#fee95d" r="16"/><g><path d="m22.884 149.372c4.438 4.438 10.34 6.883 16.616 6.883 6.277 0 12.179-2.445 16.616-6.883 2.268-2.268 4.012-4.918 5.178-7.805 3.627 2.198 7.796 3.374 12.147 3.374 6.277 0 12.179-2.445 16.617-6.883 7.788-7.789 8.93-19.718 3.478-28.752 2.898-1.167 5.56-2.914 7.834-5.189 4.439-4.438 6.884-10.34 6.884-16.617s-2.444-12.179-6.883-16.617c-4.437-4.438-10.339-6.883-16.616-6.883s-12.179 2.445-16.616 6.883c-2.268 2.268-4.012 4.919-5.178 7.805-3.628-2.198-7.796-3.375-12.147-3.375-6.277 0-12.179 2.445-16.617 6.883-7.791 7.792-8.931 19.727-3.472 28.762-2.856 1.145-5.531 2.869-7.841 5.178-4.44 4.44-6.884 10.342-6.884 16.619s2.444 12.178 6.884 16.617c-.001 0-.001 0 0 0zm22.626-10.607c-1.605 1.605-3.739 2.49-6.01 2.49s-4.404-.884-6.01-2.49h-.001c-1.605-1.605-2.489-3.74-2.489-6.01 0-2.271.884-4.405 2.49-6.011 1.656-1.657 3.833-2.485 6.01-2.485 2.175 0 4.349.827 6.006 2.481l.01.01c1.602 1.605 2.484 3.737 2.484 6.005 0 2.27-.884 4.405-2.49 6.01zm33.235-57.275c1.605-1.605 3.739-2.49 6.01-2.49s4.404.884 6.011 2.49c1.605 1.605 2.489 3.74 2.489 6.01s-.884 4.405-2.49 6.01c-1.605 1.605-3.739 2.49-6.01 2.49s-4.404-.884-6.01-2.49h-.001c-1.605-1.605-2.489-3.74-2.489-6.01s.884-4.405 2.49-6.01zm-33.941 11.313c1.605-1.605 3.739-2.49 6.01-2.49s4.404.884 6.01 2.49l22.628 22.627c3.314 3.314 3.314 8.707 0 12.021-1.605 1.605-3.739 2.49-6.01 2.49s-4.405-.884-6.011-2.49l-11.309-11.309c-.002-.002-.003-.003-.005-.005-.001-.001-.002-.001-.002-.002l-11.311-11.311c-3.315-3.314-3.315-8.707 0-12.021z"/><path d="m433.463 125.306c-5.452 9.034-4.31 20.963 3.478 28.752 4.438 4.438 10.34 6.883 16.617 6.883 4.35 0 8.519-1.176 12.147-3.374 1.167 2.886 2.91 5.537 5.177 7.804 4.438 4.438 10.34 6.883 16.617 6.883 6.276 0 12.178-2.444 16.616-6.883h.001c4.438-4.438 6.883-10.34 6.883-16.617s-2.444-12.179-6.883-16.617c-2.31-2.31-4.986-4.034-7.842-5.179 5.459-9.035 4.319-20.97-3.472-28.762-4.438-4.438-10.34-6.883-16.617-6.883-4.35 0-8.519 1.176-12.146 3.375-1.167-2.886-2.91-5.537-5.178-7.805-4.437-4.438-10.339-6.883-16.616-6.883s-12.179 2.445-16.616 6.883c-4.439 4.438-6.884 10.34-6.884 16.617s2.444 12.179 6.883 16.617c2.276 2.275 4.937 4.023 7.835 5.189zm60.048 29.459c-1.606 1.606-3.74 2.49-6.011 2.49s-4.404-.884-6.011-2.49c-1.605-1.605-2.489-3.74-2.489-6.01 0-2.269.883-4.403 2.488-6.008l.005-.005c1.656-1.655 3.832-2.483 6.007-2.483 2.177 0 4.354.829 6.011 2.486 1.605 1.605 2.489 3.74 2.489 6.01s-.884 4.405-2.489 6.01zm-17.324-48.452c2.271 0 4.404.884 6.01 2.49 3.314 3.314 3.314 8.707 0 12.021l-22.626 22.627c-1.606 1.606-3.741 2.49-6.012 2.49s-4.404-.884-6.01-2.49c-3.314-3.314-3.314-8.707 0-12.021l22.628-22.627c1.605-1.605 3.739-2.49 6.01-2.49zm-39.952-8.823c1.605-1.605 3.739-2.49 6.01-2.49s4.404.884 6.011 2.49c1.605 1.605 2.489 3.74 2.489 6.01s-.884 4.405-2.489 6.01h-.001c-1.605 1.605-3.739 2.49-6.01 2.49s-4.404-.884-6.011-2.49c-1.605-1.605-2.489-3.74-2.489-6.01s.884-4.405 2.49-6.01z"/><path d="m495.5 192h-48c-.275 0-.5-.224-.5-.5v-16h-15v16c0 8.547 6.953 15.5 15.5 15.5h48c.275 0 .5.224.5.5v64c0 .276-.225.5-.5.5h-56.5v-44.054l-183.5-150.136-183.5 150.136v28.054h-56.5c-.275 0-.5-.224-.5-.5v-64c0-.276.225-.5.5-.5h56c8.547 0 15.5-6.953 15.5-15.5v-16h-15v16c0 .276-.225.5-.5.5h-56c-8.547 0-15.5 6.953-15.5 15.5v64c0 8.547 6.953 15.5 15.5 15.5h100.434l88.611 72.5-117.545 96.173v-152.173h-15v175.5h367v-135.5h-15v112.173l-117.545-96.173 69.055-56.5h48.49v24.5h15v-24.5h56.5c8.547 0 15.5-6.953 15.5-15.5v-64c0-8.547-6.953-15.5-15.5-15.5zm-85.011 32h-309.978l154.989-126.81zm-323.489 32v-8.673l10.601 8.673zm168.5 65.19 154.99 126.81h-309.98zm39.111 12.62-39.111-32-39.111 32-76.768-62.81h43.879c.275 0 .5.224.5.5v16h15v-16c0-8.547-6.953-15.5-15.5-15.5h-62.212l-20.778-17h309.98l-40.333 33h-58.657c-8.547 0-15.5 6.953-15.5 15.5v16h15v-16c0-.276.225-.5.5-.5h40.323zm99.233-61.81 30.156-24.673v24.673z"/><path d="m351.5 95c12.958 0 23.5-10.542 23.5-23.5s-10.542-23.5-23.5-23.5-23.5 10.542-23.5 23.5 10.542 23.5 23.5 23.5zm0-32c4.687 0 8.5 3.813 8.5 8.5s-3.813 8.5-8.5 8.5-8.5-3.813-8.5-8.5 3.813-8.5 8.5-8.5z"/><path d="m31.5 304c-12.958 0-23.5 10.542-23.5 23.5s10.542 23.5 23.5 23.5 23.5-10.542 23.5-23.5-10.542-23.5-23.5-23.5zm0 32c-4.687 0-8.5-3.813-8.5-8.5s3.813-8.5 8.5-8.5 8.5 3.813 8.5 8.5-3.813 8.5-8.5 8.5z"/><path d="m152 119.5h15v-16.5h16.5v-15h-16.5v-16.5h-15v16.5h-16.5v15h16.5z"/><path d="m487 311.5h-15v16.5h-16.5v15h16.5v16.5h15v-16.5h16.5v-15h-16.5z"/></g><g><g><path d="m215.5 416h16v15h-16z" fill="#fff"/></g><g><path d="m247.5 416h16v15h-16z" fill="#fff"/></g><g><path d="m279.5 416h16v15h-16z" fill="#fff"/></g></g></g></svg>