<svg id="Capa_1" enable-background="new 0 0 512 512" height="512" viewBox="0 0 512 512" width="512" xmlns="http://www.w3.org/2000/svg"><g><g><g><g><g><g><g><g><g><g><circle cx="256" cy="256" fill="#7584f2" r="256"/></g></g></g></g></g></g></g></g></g><path d="m512 256c0-9.716-.542-19.306-1.596-28.741l-130.036-130.037-270.485 288.887 125.035 125.035c6.952.567 13.983.856 21.082.856 141.385 0 256-114.615 256-256z" fill="#4855b7"/><g><circle cx="256" cy="385.166" fill="#ffce00" r="47.891"/></g><g><path d="m256 337.275c-.089 0-.177.006-.266.007v95.769c.089 0 .177.007.266.007 26.45 0 47.891-21.442 47.891-47.891 0-26.45-21.441-47.892-47.891-47.892z" fill="#fdba12"/></g><g><path d="m389.874 355.811h-267.748l54.01-203.441c9.615-36.215 42.394-61.428 79.864-61.428 37.47 0 70.249 25.213 79.864 61.428z" fill="#ffce00"/></g><g><path d="m335.864 152.37c-9.615-36.215-42.394-61.428-79.864-61.428-.089 0-.177.005-.266.006v264.863h134.14z" fill="#fdba12"/></g><g><path d="m109.883 325.512h292.235v60.597h-292.235z" fill="#fa0"/></g><g><path d="m255.734 325.512h146.383v60.597h-146.383z" fill="#ff9500"/></g><g><circle cx="335.844" cy="136.131" fill="#ff475a" r="59.131"/></g><g><path d="m394.975 136.131c0-32.567-26.329-58.978-58.862-59.124v118.249c32.533-.147 58.862-26.558 58.862-59.125z" fill="#f03049"/></g><g><g><path d="m330.257 175.04v-56.468l-12.95 13.184-9.45-9.917 24.5-24.617h14.467v77.818z" fill="#fff"/></g></g><g><g><path d="m336.114 97.222h10.71v77.818h-10.71z" fill="#e9edf5"/></g></g></g></svg>