<?xml version="1.0" encoding="iso-8859-1"?>
<!-- Generator: Adobe Illustrator 19.0.0, SVG Export Plug-In . SVG Version: 6.00 Build 0)  -->
<svg version="1.1" id="Capa_1" xmlns="http://www.w3.org/2000/svg" xmlns:xlink="http://www.w3.org/1999/xlink" x="0px" y="0px"
	 viewBox="0 0 512.001 512.001" style="enable-background:new 0 0 512.001 512.001;" xml:space="preserve">
<g>
	<g>
		<path d="M423.781,34.923L363.174,0l-60.607,34.923L241.959,0l-60.607,34.923L135.906,8.736v411.485h270.511v60.373
			c0,17.317,14.088,31.406,31.405,31.406c17.317,0,31.406-14.088,31.406-31.406V8.736L423.781,34.923z M172.82,274.071v-30.322
			h129.747v30.322H172.82z M432.315,207.864H172.82v-30.322h259.495V207.864z M432.315,141.657H172.82v-30.322h259.495V141.657z"/>
	</g>
</g>
<g>
	<g>
		<path d="M376.096,480.595v-30.051H42.773v30.051c0,17.317,14.089,31.406,31.406,31.406h310.518
			C379.234,502.795,376.096,492.055,376.096,480.595z"/>
	</g>
</g>
<g>
</g>
<g>
</g>
<g>
</g>
<g>
</g>
<g>
</g>
<g>
</g>
<g>
</g>
<g>
</g>
<g>
</g>
<g>
</g>
<g>
</g>
<g>
</g>
<g>
</g>
<g>
</g>
<g>
</g>
</svg>
